<?xml version="1.0" encoding="UTF-8" standalone="no"?>
<!DOCTYPE svg PUBLIC "-//W3C//DTD SVG 1.1//EN" "http://www.w3.org/Graphics/SVG/1.1/DTD/svg11.dtd">
<!-- Generated by Microsoft Visio, SVG Export architecture.svg Artifact Scanner -->
<svg xmlns="http://www.w3.org/2000/svg" xmlns:xlink="http://www.w3.org/1999/xlink" xmlns:ev="http://www.w3.org/2001/xml-events"
		width="11in" height="8.5in" viewBox="0 0 792 612" xml:space="preserve" color-interpolation-filters="sRGB" class="st36">
	<style type="text/css">
	<![CDATA[
		.st1 {fill:#ffffff;stroke:#bfbfbf;stroke-dasharray:11.25,6.75;stroke-linecap:round;stroke-linejoin:round;stroke-width:0.75}
		.st2 {fill:#99ccff;stroke:none;stroke-linecap:round;stroke-linejoin:round;stroke-width:0.75}
		.st3 {fill:#000000;font-family:Calibri;font-size:1.16666em;font-weight:bold}
		.st4 {fill:url(#grad0-10)}
		.st5 {stroke:none;stroke-linecap:butt;stroke-width:0.75}
		.st6 {fill:#767676;stroke:none;stroke-linecap:butt;stroke-width:0.75}
		.st7 {fill:#999999}
		.st8 {fill:#a3a3a3;stroke:none;stroke-linecap:butt;stroke-width:0.75}
		.st9 {fill:#b3b3b3;stroke:none;stroke-linecap:butt;stroke-width:0.75}
		.st10 {fill:url(#grad0-24);stroke:none;stroke-linecap:butt;stroke-width:0.75}
		.st11 {fill:#999999;stroke:none;stroke-linecap:butt;stroke-width:0.75}
		.st12 {fill:#000000;font-family:Calibri;font-size:0.75em}
		.st13 {fill:#fff2cc;stroke:none;stroke-linecap:round;stroke-linejoin:round;stroke-width:0.75}
		.st14 {fill:#000000;font-family:Calibri;font-size:0.833336em;font-weight:bold}
		.st15 {font-family:Symbol;font-size:1em;font-weight:normal}
		.st16 {font-size:1em;font-weight:normal}
		.st17 {marker-end:url(#mrkr4-50);stroke:#000000;stroke-linecap:round;stroke-linejoin:round;stroke-width:0.75}
		.st18 {fill:#000000;fill-opacity:1;stroke:#000000;stroke-opacity:1;stroke-width:0.22935779816514}
		.st19 {fill:#ffffff;stroke:#000000;stroke-linecap:round;stroke-linejoin:round;stroke-width:0.75}
		.st20 {fill:#000000;font-family:Calibri;font-size:0.833336em}
		.st21 {font-size:1em}
		.st22 {fill:#ffffff;stroke:none;stroke-linecap:butt}
		.st23 {fill:#000000;font-family:Calibri;font-size:0.666664em}
		.st24 {fill:#ffffff;stroke:none;stroke-linecap:butt;stroke-width:7.2}
		.st25 {fill:#d7e3bf;stroke:none;stroke-linecap:round;stroke-linejoin:round;stroke-width:0.75}
		.st26 {fill:#fff2cc;stroke:#a5a5a5;stroke-linecap:round;stroke-linejoin:round;stroke-width:0.75}
		.st27 {fill:none;stroke:none;stroke-linecap:round;stroke-linejoin:round;stroke-width:0.75}
		.st28 {fill:#50e6ff;stroke:none;stroke-linecap:butt;stroke-width:0.75}
		.st29 {fill:#1490df;stroke:none;stroke-linecap:butt;stroke-width:0.75}
		.st30 {fill:url(#grad0-104);stroke:none;stroke-linecap:butt;stroke-width:0.75}
		.st31 {fill:#000000;font-family:Calibri;font-size:1.00001em}
		.st32 {fill:#fff2cc}
		.st33 {stroke:none;stroke-linecap:round;stroke-linejoin:round;stroke-width:0.75}
		.st34 {fill:#000000;font-family:Symbol;font-size:0.833336em}
		.st35 {font-family:Calibri;font-size:1em}
		.st36 {fill:none;fill-rule:evenodd;font-size:12px;overflow:visible;stroke-linecap:square;stroke-miterlimit:3}
	]]>
	</style>

	<defs id="Patterns_And_Gradients">
		<linearGradient id="grad0-10" x1="0" y1="0" x2="1" y2="0" gradientTransform="rotate(-90 0.5 0.5)">
			<stop offset="0" stop-color="#0078d4" stop-opacity="1"/>
			<stop offset="0.16" stop-color="#1380da" stop-opacity="1"/>
			<stop offset="0.53" stop-color="#3c91e5" stop-opacity="1"/>
			<stop offset="0.82" stop-color="#559cec" stop-opacity="1"/>
			<stop offset="1" stop-color="#5ea0ef" stop-opacity="1"/>
		</linearGradient>
		<linearGradient id="grad0-24" x1="0" y1="0" x2="1" y2="0" gradientTransform="rotate(90 0.5 0.5)">
			<stop offset="0" stop-color="#333132" stop-opacity="1"/>
			<stop offset="1" stop-color="#5b5a5c" stop-opacity="1"/>
		</linearGradient>
		<linearGradient id="grad0-104" x1="0" y1="0" x2="1" y2="0" gradientTransform="rotate(-90 0.5 0.5)">
			<stop offset="0" stop-color="#fea11b" stop-opacity="1"/>
			<stop offset="0.285" stop-color="#fea51a" stop-opacity="1"/>
			<stop offset="0.545" stop-color="#feb018" stop-opacity="1"/>
			<stop offset="0.8" stop-color="#ffc314" stop-opacity="1"/>
			<stop offset="1" stop-color="#ffd70f" stop-opacity="1"/>
		</linearGradient>
	</defs>
	<defs id="Markers">
		<g id="lend4">
			<path d="M 2 1 L 0 0 L 2 -1 L 2 1 " style="stroke:none"/>
		</g>
		<marker id="mrkr4-50" class="st18" refX="-8.72" orient="auto" markerUnits="strokeWidth" overflow="visible">
			<use xlink:href="#lend4" transform="scale(-4.36,-4.36) "/>
		</marker>
	</defs>
	<g>
		<title>Artifact Scanner</title>
		<g id="shape1-1" transform="translate(309.75,-82.5)">
			<title>Rounded Rectangle.1067</title>
			<path d="M12.85 612 L415.4 612 A12.8473 12.8473 -180 0 0 428.25 599.15 L428.25 246.85 A12.8473 12.8473 -180 0 0 415.4
						 234 L12.85 234 A12.8473 12.8473 -180 0 0 -0 246.85 L0 599.15 A12.8473 12.8473 -180 0 0 12.85 612 Z"
					class="st1"/>
		</g>
		<g id="shape2-3" transform="translate(333,-121.5)">
			<title>Rounded Rectangle.1084</title>
			<desc>Scanner</desc>
			<path d="M11.42 612 L372.96 612 A11.4169 11.4169 -180 0 0 384.38 600.58 L384.38 299.42 A11.4169 11.4169 -180 0 0 372.96
						 288 L11.42 288 A11.4169 11.4169 -180 0 0 0 299.42 L0 600.58 A11.4169 11.4169 -180 0 0 11.42 612 Z"
					class="st2"/>
			<text x="4" y="304.6" class="st3">Scanner</text>		</g>
		<g id="group3-6" transform="translate(120.75,-235.98)">
			<title>Container Registries.1043</title>
			<desc>Artifact Registry</desc>
			<g id="shape4-7" transform="translate(0,-14.0891)">
				<title>Sheet.4</title>
				<path d="M73.03 580.14 A18.8655 20.5691 -180 0 0 63.04 574.64 A22.1073 24.1036 -180 0 0 40.07 551.57 A22.8277 24.8891
							 -180 0 0 18.28 567.72 A20.8016 22.68 -180 0 0 0 589.71 A21.2968 23.22 -180 0 0 22.02 612 L60.56 612
							 A18.01 19.6364 -180 0 0 78.21 593.3 A16.5242 18.0164 -180 0 0 73.08 580.39 L73.03 580.14 Z"
						class="st4"/>
				<path d="M73.03 580.14 A18.8655 20.5691 -180 0 0 63.04 574.64 A22.1073 24.1036 -180 0 0 40.07 551.57 A22.8277 24.8891
							 -180 0 0 18.28 567.72 A20.8016 22.68 -180 0 0 0 589.71 A21.2968 23.22 -180 0 0 22.02 612 L60.56 612
							 A18.01 19.6364 -180 0 0 78.21 593.3 A16.5242 18.0164 -180 0 0 73.08 580.39" class="st5"/>
			</g>
			<g id="shape5-12" transform="translate(45.3402,-22.68)">
				<title>Sheet.5</title>
				<path d="M0 582.74 L0.05 603.75 L35.66 612 L35.66 597.37 L0 582.74 Z" class="st6"/>
			</g>
			<g id="shape6-14" transform="translate(35.7048,-26.0182)">
				<title>Sheet.6</title>
				<path d="M9.64 586.08 L0 592.46 L0 612 L9.68 607.09 L9.64 586.08 Z" class="st7"/>
				<path d="M9.64 586.08 L0 592.46 L0 612 L9.68 607.09" class="st5"/>
			</g>
			<g id="shape7-17" transform="translate(48.672,-25.8709)">
				<title>Sheet.7</title>
				<path d="M12.92 607.24 L16.16 608.22 L16.16 596.78 L12.92 595.55 L12.92 607.24 ZM9.68 594.43 L6.44 593.15 L6.44 605.37
							 L9.68 606.35 L9.68 594.43 ZM19.41 609.15 L22.56 610.09 L22.65 599.19 L19.41 598.01 L19.41 609.15 ZM0
							 603.56 L3.24 604.44 L3.24 592.02 L0 590.84 L0 603.56 ZM29.09 601.59 L25.84 600.37 L25.84 611.02 L29.09
							 612 L29.09 601.59 Z" class="st8"/>
			</g>
			<g id="shape8-19" transform="translate(37.3708,-30.24)">
				<title>Sheet.8</title>
				<path d="M1.62 610.97 L0 612 L0 598.11 L1.62 597.17 L1.62 610.97 ZM4.82 595.16 L3.15 596.34 L3.15 609.84 L4.82 608.86
							 L4.82 595.16 Z" class="st9"/>
			</g>
			<g id="shape9-21" transform="translate(35.7048,-19.0473)">
				<title>Sheet.9</title>
				<path d="M45.3 608.37 L35.57 612 L0 605.03 L9.68 600.12 L45.3 608.37 Z" class="st10"/>
			</g>
			<g id="shape10-25" transform="translate(45.2051,-0.294545)">
				<title>Sheet.10</title>
				<path d="M35.79 604.59 L0 612 L0.18 584.56 L35.79 591.77 L35.79 604.59 Z" class="st6"/>
			</g>
			<g id="shape11-27" transform="translate(48.672,-4.81091)">
				<title>Sheet.11</title>
				<path d="M0 612 L0 594.57 L3.24 595.01 L3.24 611.41 L0 612 ZM9.68 610.23 L6.44 610.87 L6.44 595.46 L9.68 596 L9.68
							 610.23 ZM12.92 609.69 L12.92 596.34 L16.16 596.78 L16.16 609.05 L12.92 609.69 ZM22.6 607.83 L19.41 608.47
							 L19.41 597.22 L22.6 597.76 L22.6 607.83 ZM29.18 606.7 L25.84 607.34 L25.84 598.11 L28.95 598.55 L29.18
							 606.7 Z" class="st8"/>
			</g>
			<g id="shape12-29" transform="translate(35.7048,0)">
				<title>Sheet.12</title>
				<path d="M0 605.42 L0 589.42 L9.73 584.51 L9.73 612 L0 605.42 Z" class="st11"/>
			</g>
			<g id="shape13-31" transform="translate(37.3257,-4.61455)">
				<title>Sheet.13</title>
				<path d="M1.44 609.99 L0 609.2 L0 595.65 L1.44 594.92 L1.44 609.99 ZM4.91 593.05 L3.2 593.98 L3.2 611.07 L4.86 612
							 L4.86 593.05 L4.91 593.05 Z" class="st9"/>
			</g>
			<g id="shape3-33">
				<text x="11.12" y="620.1" class="st12">Artifact Registry</text>			</g>
		</g>
		<g id="shape14-35" transform="translate(554.531,-386.013)">
			<title>Rounded Rectangle.1073</title>
			<desc>Identity Role Assignments QuarantineWriter ACRPush</desc>
			<path d="M0 612 L132.94 612 L132.94 556.03 L0 556.03 L0 612 Z" class="st13"/>
			<text x="4" y="569.03" class="st14">Identity Role Assignments  <tspan x="4" dy="2.411em" class="st15">路</tspan><tspan
						class="st15"> </tspan><tspan class="st16">QuarantineWriter </tspan><tspan x="4" dy="1.215em" class="st15">路</tspan><tspan
						class="st15"> </tspan><tspan class="st16">ACRPush</tspan></text>		</g>
		<g id="group15-44" transform="translate(389.009,-163.44)">
			<title>Sheet.15</title>
			<g id="shape16-45" transform="translate(69.616,-201.549)">
				<title>Dynamic connector.1062</title>
				<path d="M-9 612 L-9 659.46" class="st17"/>
			</g>
			<g id="shape17-51" transform="translate(6.61596,-75.5486)">
				<title>Diamond.1078</title>
				<desc>Is a valid artifact ?</desc>
				<path d="M54 612 L108 576 L54 540 L0 576 L54 612 Z" class="st19"/>
				<text x="17.31" y="579" class="st20">Is a valid artifact ?</text>			</g>
			<g id="shape18-54" transform="translate(2.39808E-14,-201.549)">
				<title>Rectangle.1079</title>
				<desc>Webhook trigger for artifact push</desc>
				<rect x="0" y="573.429" width="121.232" height="38.5714" class="st19"/>
				<text x="19.21" y="589.71" class="st20">Webhook trigger for <tspan x="34.98" dy="1.2em" class="st21">artifact push</tspan></text>			</g>
			<g id="shape19-58" transform="translate(170.25,-94.9886)">
				<title>Rectangle.1080</title>
				<desc>Leave artifact quarantined</desc>
				<rect x="0" y="578.88" width="121.232" height="33.12" class="st19"/>
				<text x="6.98" y="598.44" class="st20">Leave artifact quarantined</text>			</g>
			<g id="shape20-61" transform="translate(114.616,-102.549)">
				<title>Dynamic connector.1081</title>
				<desc>NO</desc>
				<path d="M0 603 L49.09 603" class="st17"/>
				<rect x="22.5866" y="598.2" width="10.4609" height="9.59985" class="st22"/>
				<text x="22.59" y="605.4" class="st23">NO</text>			</g>
			<g id="shape21-68" transform="translate(6.99085,-5.20739E-05)">
				<title>Rectangle.1082</title>
				<desc>Clear quarantine flag</desc>
				<rect x="0" y="578.88" width="108" height="33.12" class="st19"/>
				<text x="11.53" y="598.44" class="st20">Clear quarantine flag</text>			</g>
			<g id="shape22-71" transform="translate(51.8034,-75.5486)">
				<title>Dynamic connector.1083</title>
				<desc>YES</desc>
				<path d="M8.81 612 L8.81 625.5 L9.19 625.5 L9.19 647.89" class="st17"/>
				<rect x="3.44715" y="628.227" width="11.4804" height="9.59985" class="st24"/>
				<text x="3.45" y="635.43" class="st23">YES</text>			</g>
		</g>
		<g id="shape23-78" transform="translate(107.25,-414)">
			<title>Rounded Rectangle.18</title>
			<desc>Publisher</desc>
			<path d="M10.8 612 L97.2 612 A10.7998 10.7998 -180 0 0 108 601.2 L108 586.8 A10.7998 10.7998 -180 0 0 97.2 576 L10.8
						 576 A10.7998 10.7998 -180 0 0 0 586.8 L0 601.2 A10.7998 10.7998 -180 0 0 10.8 612 Z" class="st25"/>
			<text x="35.05" y="597" class="st20">Publisher</text>		</g>
		<g id="shape24-81" transform="translate(-450.75,301.5) rotate(-90)">
			<title>Simple Arrow.1088</title>
			<path d="M0 612 L9 607.5 L9 609.75 L103.5 609.75 L103.5 612 L103.5 614.25 L9 614.25 L9 616.5 L0 612 Z" class="st26"/>
		</g>
		<g id="shape25-83" transform="translate(299.892,952.421) rotate(-179.077)">
			<title>Simple Double Arrow.1090</title>
			<path d="M0 612 L11.15 605.81 L11.15 608.91 L96.86 608.91 L96.86 605.81 L108.01 612 L96.86 618.19 L96.86 615.09 L11.15
						 615.09 L11.15 618.19 L0 612 Z" class="st26"/>
		</g>
		<g id="shape27-85" transform="translate(162.781,-358)">
			<title>Sheet.27</title>
			<desc>New artifacts are quarantined before verified</desc>
			<rect x="0" y="592" width="89.2188" height="20" class="st27"/>
			<text x="16.77" y="594.8" class="st23">New artifacts are <tspan x="24.63" dy="1.2em" class="st21">quarantined </tspan><tspan
						x="19.65" dy="1.2em" class="st21"> </tspan>before verified</text>		</g>
		<g id="group30-90" transform="translate(441,-81)">
			<title>Icon-compute-29</title>
			<g id="group31-91">
				<title>Sheet.31</title>
				<g id="shape32-92" transform="translate(440.375,1021.49) rotate(134.919)">
					<title>Sheet.32</title>
					<path d="M4.25 599.55 L5.73 599.55 a0.478512 0.478512 0 0 1 0.478512 0.478512 L6.21 611.04 a0.955232 0.955232
								 0 0 1 -0.955232 0.955232 L3.76 612 L3.76 600.02 a0.478512 0.478512 0 0 1 0.478512 -0.478512 L4.25
								 599.55 Z" class="st28"/>
				</g>
				<g id="shape33-94" transform="translate(432.137,157.767) rotate(44.919)">
					<title>Sheet.33</title>
					<path d="M4.17 599.72 L5.66 599.72 a0.478512 0.478512 0 0 1 0.478512 0.478512 L6.14 612 L4.64 612 a0.955232 0.955232
								 0 0 1 -0.955232 -0.955232 L3.69 600.2 a0.478512 0.478512 0 0 1 0.478512 -0.474928 Z" class="st29"/>
				</g>
			</g>
			<g id="group34-96" transform="translate(6.50526,-9.45336)">
				<title>Sheet.34</title>
				<g id="shape35-97" transform="translate(433.361,159.69) rotate(45.081)">
					<title>Sheet.35</title>
					<path d="M26.04 599.55 L27.53 599.55 a0.955232 0.955232 0 0 1 0.955232 0.955232 L28.49 611.52 a0.478512 0.478512
								 0 0 1 -0.478512 0.478512 L26.52 612 a0.478512 0.478512 0 0 1 -0.478512 -0.478512 L26.05 599.55 L26.04
								 599.55 Z" class="st28"/>
				</g>
				<g id="shape36-99" transform="translate(470.908,1009.4) rotate(135.081)">
					<title>Sheet.36</title>
					<path d="M27.08 599.72 L28.57 599.72 L28.57 611.52 a0.478512 0.478512 0 0 1 -0.478512 0.478512 L26.6 612 a0.478512
								 0.478512 0 0 1 -0.478512 -0.478512 L26.12 600.68 a0.955232 0.955232 0 0 1 0.955232 -0.955232 L27.08
								 599.72 Z" class="st29"/>
				</g>
			</g>
			<g id="shape37-101" transform="translate(11.2725,-3.35497)">
				<title>Sheet.37</title>
				<path d="M6.79 598.76 L0.36 598.76 a0.345891 0.345891 0 0 1 -0.358436 -0.324385 a0.297502 0.297502 0 0 1 0.0322592
							 -0.134413 L7.74 583.04 a0.369189 0.369189 0 0 1 0.333345 -0.189971 L15.69 582.85 a0.345891 0.345891
							 0 0 1 0.358436 0.324385 a0.29571 0.29571 0 0 1 -0.0627263 0.179218 L6.92 595.29 L15.76 595.29 a0.345891
							 0.345891 0 0 1 0.358436 0.324385 a0.315424 0.315424 0 0 1 -0.0931934 0.218646 L1.35 611.1 C1.21 611.19
							 0.23 612 0.71 610.77 L6.79 598.76 Z" class="st30"/>
			</g>
		</g>
		<g id="shape38-105" transform="translate(459,-90)">
			<title>Sheet.38</title>
			<desc>Azure Function App</desc>
			<rect x="0" y="592" width="152" height="20" class="st27"/>
			<text x="28.14" y="605.6" class="st31">Azure Function App</text>		</g>
		<g id="shape41-108" transform="translate(228.39,-279.78)">
			<title>Sheet.41</title>
			<desc>Webhook</desc>
			<rect x="0" y="592" width="58.5" height="20" class="st27"/>
			<text x="13.46" y="604.4" class="st23">Webhook</text>		</g>
		<g id="shape26-111" transform="translate(80.2502,-486)">
			<title>Filled.1072</title>
			<desc>ArtifactScanner enables verifying an artifact that are pushed...</desc>
			<path d="M0 612 L234 612 L234 540 L0 540 L0 612 Z" class="st32"/>
			<path d="M234 612 L229.5 662.28" class="st33"/>
			<path d="M0 612 L234 612 L234 540 L0 540 L0 612" class="st33"/>
			<text x="10" y="560.96" class="st34"><tspan class="st21">路</tspan> <tspan class="st35">ArtifactScanner enables verifying an artifact </tspan><tspan
						x="28" dy="1.204em" class="st35">that are pushed to the registry </tspan><tspan x="10" dy="1.211em"
						class="st21">路</tspan> <tspan class="st35">The Registry has quarantine policy enabled to </tspan><tspan
						x="28" dy="1.204em" class="st35">invoke an external scanner</tspan></text>		</g>
	</g>
</svg>
